<!-- Generated by IcoMoon.io -->
<svg version="1.1" xmlns="http://www.w3.org/2000/svg" xmlns:xlink="http://www.w3.org/1999/xlink">
  <style>.i0 { stroke:#a55200; } .eq-asset { stroke: none !important; }</style>
  <defs>
    <symbol id="AID" overflow="visible">
		<path d="M28 8h-6v-4c0-1.1-0.9-2-2-2h-8c-1.1 0-2 0.9-2 2v4h-6c-2.2 0-4 1.8-4 4v16c0 2.2 1.8 4 4 4h24c2.2 0 4-1.8 4-4v-16c0-2.2-1.8-4-4-4zM12 4h8v4h-8v-4zM24 22h-6v6h-4v-6h-6v-4h6v-6h4v6h6v4z" fill="#000000"></path>
    </symbol>
    <symbol id="FIRE" overflow="visible">
		<path d="M10.032 32c-2.133-4.438-0.997-6.981 0.642-9.376 1.795-2.624 2.258-5.221 2.258-5.221s1.411 1.834 0.847 4.703c2.493-2.775 2.963-7.196 2.587-8.89 5.635 3.938 8.043 12.464 4.798 18.783 17.262-9.767 4.294-24.38 2.036-26.027 0.753 1.646 0.895 4.433-0.625 5.785-2.573-9.759-8.937-11.759-8.937-11.759 0.753 5.033-2.728 10.536-6.084 14.648-0.118-2.007-0.243-3.392-1.298-5.312-0.237 3.646-3.023 6.617-3.777 10.27-1.022 4.946 0.765 8.568 7.555 12.394z" fill="#000000"></path>
    </symbol>
    <symbol id="FLAG" overflow="visible">
		<path d="M26 5.385c2.39 0 4.534-1.301 6-2.285v18.615c-1.466 0.984-3.61 2.285-6 2.285s-4.534-0.708-6-1.692c-1.466-0.984-3.61-1.692-6-1.692s-4.534 1.216-6 2.2v-18.615c1.466-0.984 3.61-2.2 6-2.2s4.534 0.708 6 1.692c1.466 0.984 3.61 1.692 6 1.692zM4 0c1.105 0 2 0.895 2 2v30h-4v-30c0-1.105 0.895-2 2-2z" fill="#000000"></path>  
    </symbol>
    <symbol id="LOCK" overflow="visible">
		<path d="M26 14h-2v-6c0-4.418-3.582-8-8-8s-8 3.582-8 8v6h-2c-1.1 0-2 0.9-2 2v14c0 1.1 0.9 2 2 2h20c1.1 0 2-0.9 2-2v-14c0-1.1-0.9-2-2-2zM16 26c-1.105 0-2-0.895-2-2s0.895-2 2-2 2 0.895 2 2-0.895 2-2 2zM20 14h-8v-6c0-2.206 1.794-4 4-4s4 1.794 4 4v6z" fill="#000000"></path>
    </symbol>
    <symbol id="WRENCH" overflow="visible">
		<path d="M31.342 25.559l-14.392-12.336c0.67-1.259 1.051-2.696 1.051-4.222 0-4.971-4.029-9-9-9-0.909 0-1.787 0.135-2.614 0.386l5.2 5.2c0.778 0.778 0.778 2.051 0 2.828l-3.172 3.172c-0.778 0.778-2.051 0.778-2.828 0l-5.2-5.2c-0.251 0.827-0.386 1.705-0.386 2.614 0 4.971 4.029 9 9 9 1.526 0 2.963-0.38 4.222-1.051l12.336 14.392c0.716 0.835 1.938 0.882 2.716 0.104l3.172-3.172c0.778-0.778 0.731-2-0.104-2.716z" fill="#000000"></path>
    </symbol>

  </defs>
  <g id="viewer">
    <g id="mirror" transform="scale(1, 1)" stroke-width="0.09%">
      <g id="background" fill="none">
      </g>
      <g id="assets" fill="none">
        <g id="eq-assets">
          <use xlink:href="#AID" x="20" y="0" id="legend_AID" class="eq-asset">.</use>
          <use xlink:href="#FIRE" x="20" y="50" id="legend_FIRE" class="eq-asset">.</use>
          <use xlink:href="#FLAG" x="20" y="100" id="legend_FLAG" class="eq-asset">.</use>
          <use xlink:href="#LOCK" x="20" y="150" id="legend_LOCK" class="eq-asset">.</use>
          <use xlink:href="#WRENCH" x="20" y="200" id="legend_WRENCH" class="eq-asset">.</use>
        </g>
      </g>
    </g>
    <g id="asset-labels" font-family="Arial" font-weight="bold" font-size="1.5em" text-anchor="middle">
      <g id="eq-labels">
      </g>
    </g>
  </g>
</svg>
